<svg width="100" height="100" id="Layer_1" data-name="Layer 1" xmlns="http://www.w3.org/2000/svg" viewBox="0 0 176 176"><defs><style>.cls-1{fill:none;}.cls-2{fill:#41bf61;}</style></defs><title>android-black20181026</title><rect class="cls-1" width="176" height="176"/><path class="cls-2" d="M55.5,72.2a5.59,5.59,0,0,0-5.6,5.6V101a5.6,5.6,0,0,0,11.2,0V77.8a5.59,5.59,0,0,0-5.6-5.6Zm65,0a5.59,5.59,0,0,0-5.6,5.6V101a5.59,5.59,0,0,0,5.6,5.6A5.51,5.51,0,0,0,126,101V77.8a5.51,5.51,0,0,0-5.5-5.6Z"/><path class="cls-2" d="M63.2,73.2v36a6,6,0,0,0,6,6h4v12.3a5.6,5.6,0,0,0,11.2,0V115.2h7.4v12.3a5.6,5.6,0,1,0,11.2,0V115.2h4a6,6,0,0,0,6-6v-36Z"/><path class="cls-2" d="M100.2,51.3l3.9-7.1a.8.8,0,0,0-.3-1.1.6.6,0,0,0-.4-.1.75.75,0,0,0-.7.4l-4,7.2a26,26,0,0,0-21.4,0l-4-7.2a.75.75,0,0,0-.7-.4.6.6,0,0,0-.4.1.8.8,0,0,0-.3,1.1l3.9,7.1A23,23,0,0,0,63.1,71.2h49.7C112.8,62.6,107.7,55.2,100.2,51.3ZM76.5,62.1A2.1,2.1,0,1,1,78.6,60,2.05,2.05,0,0,1,76.5,62.1Zm23,0a2.1,2.1,0,1,1,2.1-2.1A2.18,2.18,0,0,1,99.5,62.1Z"/></svg>
