<svg width="100" height="100" id="Layer_1" data-name="Layer 1" xmlns="http://www.w3.org/2000/svg" viewBox="0 0 176 176"><defs><style>.cls-1{fill:none;}.cls-2{fill:#4fe0a9;}</style></defs><title>ios-black20181026</title><rect class="cls-1" width="176" height="176"/><path class="cls-2" d="M112.5,90.8a19.8,19.8,0,0,0,12,18.2,49.78,49.78,0,0,1-6.2,12.8c-3.7,5.5-7.6,10.9-13.7,11.1s-7.9-3.6-14.8-3.6-9,3.5-14.7,3.7c-5.9.2-10.4-5.9-14.2-11.4C53.2,110.4,47.3,90,55.2,76.3A22,22,0,0,1,73.8,65c5.8-.1,11.3,3.9,14.8,3.9s10.2-4.8,17.2-4.1a21,21,0,0,1,16.4,8.9c-.5.3-9.8,5.7-9.7,17.1M101.2,57.4A20.4,20.4,0,0,0,105.9,43c-4.5.2-10,3-13.2,6.8-2.9,3.4-5.4,8.8-4.8,13.9,5,.4,10.2-2.5,13.3-6.3"/></svg>
