<svg width="100" height="100" id="Layer_1" data-name="Layer 1" xmlns="http://www.w3.org/2000/svg" viewBox="0 0 176 176"><defs><style>.cls-1{fill:#f7df1e;}.cls-2{fill:none;}.cls-3{fill:#757575;}</style></defs><title>javascript-black20181026</title><rect class="cls-1" x="62.67" y="71" width="60.33" height="54"/><rect class="cls-2" width="176" height="176"/><path class="cls-3" d="M48,48v80h80V48Zm43.6,62.4c0,7.8-4.5,11.3-11.2,11.3-6,0-9.5-3.1-11.3-6.8h0l6.1-3.7c1.2,2.1,2.2,3.8,4.8,3.8s4-1,4-4.7V84.7h7.6Zm17.7,11.3c-7,0-11.5-3.3-13.7-7.6h0l6.1-3.6c1.6,2.7,3.7,4.5,7.4,4.5,3.1,0,5.1-1.6,5.1-3.7,0-2.6-2-3.5-5.5-5l-1.9-.8c-5.4-2.3-9.1-5.2-9.1-11.3,0-5.6,4.3-10,11-10,4.8,0,8.2,1.7,10.7,6l-5.9,3.7c-1.3-2.3-2.7-3.2-4.8-3.2s-3.6,1.4-3.6,3.2c0,2.2,1.4,3.2,4.6,4.5l1.9.8c6.4,2.8,10,5.6,10,11.9C121.8,118,116.4,121.7,109.3,121.7Z"/></svg>
