<svg width="100" height="100" id="Layer_1" data-name="Layer 1" xmlns="http://www.w3.org/2000/svg" viewBox="0 0 82.67 82.67"><defs><style>.cls-1{fill:none;}.cls-2{fill:#fb503b;}</style></defs><title>laravel_black</title><path class="cls-1" d="M37.37,49.25,20.69,20.44a.52.52,0,0,0-.54-.32l-5.81.5-6.22.54c-.35,0-.41.1-.32.46a4.8,4.8,0,0,0,.43.92Q15.31,37.11,22.4,51.69c.26.53.55,1.06.77,1.61.08.22.16.28.37.23l.27-.05,11.43-2.76c.69-.17,1.38-.33,2.06-.51.42-.1.49-.28.26-.64Z"/><path class="cls-2" d="M67.92,45.69c2.75-.73,5.51-1.46,8.26-2.21a8,8,0,0,0,2.32-.8v-.74a3.75,3.75,0,0,1-.68-.75L70,31.41a6.2,6.2,0,0,0-.8-.82,1.75,1.75,0,0,0-1.4-.45l-1,.14-6.92,1.15c-1,.17-2.1.31-3.14.51-.84.16-1.38.53-.61,1.54l0,0,7.07,10.11a.62.62,0,0,1,.16.3l-.26.07L52.36,46.55,41.2,49.23a.4.4,0,0,1-.53-.22q-7.89-13.29-15.8-26.55c-.74-1.24-1.44-2.5-2.25-3.69A1.66,1.66,0,0,0,21.13,18c-.77,0-1.53.07-2.29.13l-5,.39L8,19c-.85.07-1.71.11-2.56.19a1.13,1.13,0,0,0-1.13,1.48A7.15,7.15,0,0,0,5,22.46L20.07,55.29A2.81,2.81,0,0,0,22.14,57a3.79,3.79,0,0,0,1.77-.07l15.29-4a.27.27,0,0,1,.38.17c.47.87,1,1.73,1.44,2.59,2,3.67,4.06,7.36,6.2,11a8.17,8.17,0,0,0,1.16,1.63,2,2,0,0,0,1.91.61,17.74,17.74,0,0,0,2.61-.75q9.52-3.33,19-6.8c1.48-.54,3-1,4.41-1.68,1-.45,1-.78.4-1.65l-8.9-12C67.66,45.81,67.66,45.76,67.92,45.69ZM8.23,22.54a4.8,4.8,0,0,1-.43-.92c-.09-.36,0-.43.32-.46l6.22-.54,5.81-.5a.52.52,0,0,1,.54.32L37.37,49.25l.19.32c.23.36.16.54-.26.64-.68.18-1.37.34-2.06.51L23.81,53.48l-.27.05c-.21,0-.29,0-.37-.23-.22-.55-.51-1.08-.77-1.61m45.32-2q2.52,3.48,5.06,6.94c.5.69.49.72-.29,1L53.66,64c-.95.32-1.91.65-2.86,1a.7.7,0,0,1-.83-.23,8,8,0,0,1-.81-1.24q-3.27-5.61-6.56-11.22c-.15-.25-.09-.3.16-.36l20.36-5.32,1.64-.44.19-.05a.76.76,0,0,1,.55.39C66.24,47.58,67,48.63,67.72,49.66Zm-1.66-6.35a.34.34,0,0,1-.45-.16l-6.33-8.61a3.37,3.37,0,0,1-.21-.31c-.18-.31-.13-.44.23-.5,2.65-.48,5.31-.93,8-1.46a1.31,1.31,0,0,1,1.48.57c2.05,2.62,4.12,5.23,6.18,7.84a.33.33,0,0,1,.12.24c0,.19-.22.22-.38.26-.5.13-1,.23-1.5.36C70.79,42.12,68.43,42.71,66.06,43.31Z"/></svg>
