<svg width="100" height="100" id="Layer_1" data-name="Layer 1" xmlns="http://www.w3.org/2000/svg" viewBox="0 0 176 176"><defs><style>.cls-1{fill:#1796dd;}.cls-2{fill:#565656;}</style></defs><title>drupal-black20181026</title><path class="cls-1" d="M145.53,59.36c0-.3,0-.4-.1-.5s-.4-.1-.8-.1h-.5v1.5h.7a1.07,1.07,0,0,0,.7-.9Zm.8,2.9h-.7l-.4-.9c-.3-.5-.5-.8-.8-.8H144v1.7h-.5v-4.1h1.2a1.59,1.59,0,0,1,1.2.4c.3.3.4.4.4.8a.91.91,0,0,1-.3.7c-.1.3-.4.4-.8.4h0c.3,0,.4.3.7.8l.4,1Zm1.3-2a2.73,2.73,0,1,0-.8,2,2.79,2.79,0,0,0,.8-2Zm.4,0a3.17,3.17,0,0,1-.9,2.3,2.81,2.81,0,0,1-2.3.9,3.17,3.17,0,0,1-2.3-.9,2.81,2.81,0,0,1-.9-2.3,3.34,3.34,0,0,1,.9-2.3,2.81,2.81,0,0,1,2.3-.9,3.17,3.17,0,0,1,2.3.9,3.64,3.64,0,0,1,.9,2.3Z"/><path class="cls-1" d="M59.93,71.76h-2V60.36c0-.9,0-2,.1-3.3h0a6,6,0,0,1-.5,1.6l-5.9,13h-.9l-5.9-12.9a9.05,9.05,0,0,1-.5-1.7h0c0,.7.1,1.7.1,3.3v11.4h-1.9v-17h2.7l5.2,11.8a16,16,0,0,1,.8,2h.1a11.92,11.92,0,0,0,.8-2.1l5.3-11.8h2.5v17.1Z"/><path class="cls-1" d="M66,71.76h-1.9V59.66h2L66,71.76Zm.4-16.5a1,1,0,0,1-.4.9,1.09,1.09,0,0,1-.9.4,1,1,0,0,1-.9-.4,1.05,1.05,0,0,1-.5-.9,1,1,0,0,1,.4-.9A1.09,1.09,0,0,1,65,54a1,1,0,0,1,.9.4.87.87,0,0,1,.5.9Z"/><path class="cls-1" d="M78.13,71.16a6.71,6.71,0,0,1-3.3.8,5.58,5.58,0,0,1-4.3-1.7,5.82,5.82,0,0,1-1.6-4.4,6.43,6.43,0,0,1,1.7-4.8,6.32,6.32,0,0,1,4.7-1.9,6.1,6.1,0,0,1,2.8.7v2a4.53,4.53,0,0,0-2.9-.9,4,4,0,0,0-3.1,1.3,5.05,5.05,0,0,0-1.2,3.6,4.68,4.68,0,0,0,1.1,3.3,4,4,0,0,0,3.1,1.2,4.56,4.56,0,0,0,2.9-1.1l.1,1.9Z"/><path class="cls-1" d="M87.53,61.46a2.24,2.24,0,0,0-1.5-.4,2.43,2.43,0,0,0-2,1.1,4.8,4.8,0,0,0-.9,3.3v6.1h-2v-12h2v2.5h0a3.7,3.7,0,0,1,1.3-2,3.16,3.16,0,0,1,1.9-.7,4.12,4.12,0,0,1,1.2.1v2Z"/><path class="cls-1" d="M98.33,65.66a5.34,5.34,0,0,0-1.1-3.6,3.76,3.76,0,0,0-2.8-1.1,3.85,3.85,0,0,0-2.9,1.2,4.89,4.89,0,0,0-1.2,3.6,5.62,5.62,0,0,0,1.1,3.5,3.7,3.7,0,0,0,2.9,1.2,3.43,3.43,0,0,0,2.9-1.2,5.18,5.18,0,0,0,1.1-3.6m2,0a6.14,6.14,0,0,1-1.6,4.6,6.54,6.54,0,0,1-8.8,0,6.21,6.21,0,0,1-1.6-4.5,6.52,6.52,0,0,1,1.7-4.9,5.82,5.82,0,0,1,4.4-1.6,5.31,5.31,0,0,1,4.3,1.7,6.84,6.84,0,0,1,1.6,4.7"/><path class="cls-1" d="M109.93,68.46a3.41,3.41,0,0,1-1.1,2.5,4.86,4.86,0,0,1-3.3,1.1,7.83,7.83,0,0,1-3.1-.7v-2.1a4.72,4.72,0,0,0,3.2,1.2c1.6,0,2.3-.5,2.3-1.7a1.35,1.35,0,0,0-.5-1.2,11.07,11.07,0,0,0-2-1.1,5.41,5.41,0,0,1-2.1-1.3,3,3,0,0,1-.8-2.1,2.91,2.91,0,0,1,1.2-2.5,4.69,4.69,0,0,1,3.1-1.1,4.87,4.87,0,0,1,2.5.5v2a3.38,3.38,0,0,0-2.5-.9,2.07,2.07,0,0,0-1.6.5,1.69,1.69,0,0,0,0,2.4,5.83,5.83,0,0,0,1.9,1.1,9.36,9.36,0,0,1,2.3,1.3,5.89,5.89,0,0,1,.5,2.1"/><path class="cls-1" d="M121.93,65.66a5.34,5.34,0,0,0-1.1-3.6,3.49,3.49,0,0,0-2.8-1.2,3.85,3.85,0,0,0-2.9,1.2,4.89,4.89,0,0,0-1.2,3.6,5.62,5.62,0,0,0,1.1,3.5,3.85,3.85,0,0,0,2.9,1.2,3.43,3.43,0,0,0,2.9-1.2,5.23,5.23,0,0,0,1.1-3.5m2,0a6.14,6.14,0,0,1-1.6,4.6,6.54,6.54,0,0,1-8.8,0,6.21,6.21,0,0,1-1.6-4.5,6.52,6.52,0,0,1,1.7-4.9,5.82,5.82,0,0,1,4.4-1.6,5.31,5.31,0,0,1,4.3,1.7,6.84,6.84,0,0,1,1.6,4.7"/><path class="cls-1" d="M132.43,55.56a1.94,1.94,0,0,0-1.3-.3c-1.3,0-2,.8-2,2.5v1.9h2.8v1.6h-2.8v10.5h-2V61.26H125v-1.6h2.1v-2a4.38,4.38,0,0,1,1.2-3.2,3.56,3.56,0,0,1,2.7-.9,3.06,3.06,0,0,1,1.5.3l-.1,1.7Z"/><path class="cls-1" d="M140.13,71.56a3.36,3.36,0,0,1-1.9.4c-2.1,0-3.2-1.2-3.2-3.6v-7.2h-2.1v-1.5H135v-2.9a8,8,0,0,0,2-.7v3.6h3.1v1.6H137v6.8a2.67,2.67,0,0,0,.4,1.7,1.54,1.54,0,0,0,1.3.5,1.59,1.59,0,0,0,1.2-.4v1.7Z"/><path class="cls-2" d="M34.9,118.91a3.77,3.77,0,0,1-1.1,2.5,3.41,3.41,0,0,1-2.5,1.1,3.36,3.36,0,0,1-2.4-1.1,3.52,3.52,0,0,1-.9-2.5,3.66,3.66,0,0,1,.9-2.5,3.36,3.36,0,0,1,2.4-1.1,3.41,3.41,0,0,1,2.5,1.1,3.77,3.77,0,0,1,1.1,2.5"/><path class="cls-2" d="M78.5,121.71H72.1l-23-35.4a8,8,0,0,1-1.3-2.8h-.1a53.83,53.83,0,0,1,.3,6.1v32.1H42.8V77.21h6.7l22.4,34.9c.9,1.3,1.5,2.4,1.9,2.9h.1a36,36,0,0,1-.3-6.5V77.21h5.2l-.3,44.5Z"/><path class="cls-2" d="M112,121.71H88.4V77.21h22.7v4.6H93.7v14.7h16.1v4.6H93.6v15.5H112v5.1Z"/><path class="cls-2" d="M147.8,82H135v39.7h-5.2V82H116.9v-4.6h30.9V82Z"/></svg>
