<svg width="100" height="100" id="Layer_1" data-name="Layer 1" xmlns="http://www.w3.org/2000/svg" viewBox="0 0 176 176"><defs><style>.cls-1{fill:none;}.cls-2{fill:#23b45d;}.cls-3{fill:#24272a;}</style></defs><title>node-js-black20181026</title><rect class="cls-1" width="176" height="176"/><path class="cls-2" d="M87.3,127.5a3.08,3.08,0,0,1-1.3-.3l-3.8-2.3c-.6-.3-.3-.4-.1-.4a12.2,12.2,0,0,0,1.7-.7h.3l3,1.7h.3l11.7-6.8c.1,0,.1-.1.1-.3V104.9c0-.1,0-.3-.1-.3L87.4,97.8h-.3l-11.7,6.8c-.1,0-.1.1-.1.3v13.5c0,.1,0,.3.1.3l3.2,1.9c1.7.9,2.9-.1,2.9-1.1V106.3a.32.32,0,0,1,.3-.3h1.4a.32.32,0,0,1,.3.3v13.2a3.24,3.24,0,0,1-3.5,3.6,5.19,5.19,0,0,1-2.7-.7l-3-1.7a2.7,2.7,0,0,1-1.3-2.2V105a2.41,2.41,0,0,1,1.3-2.2L86,96a2.75,2.75,0,0,1,2.5,0l11.7,6.8a2.7,2.7,0,0,1,1.3,2.2v13.5a2.41,2.41,0,0,1-1.3,2.2l-11.7,6.8A4.8,4.8,0,0,0,87.3,127.5Zm3.6-9.2c-5.2,0-6.2-2.3-6.2-4.3a.32.32,0,0,1,.3-.3h1.6a.32.32,0,0,1,.3.3c.3,1.6.9,2.3,4,2.3,2.5,0,3.5-.6,3.5-1.9,0-.7-.3-1.3-4.2-1.7-3.2-.3-5.2-1-5.2-3.6,0-2.3,2-3.7,5.3-3.7,3.8,0,5.6,1.3,5.8,4,0,.1,0,.1-.1.3a.44.44,0,0,1-.3.1H94.1a.32.32,0,0,1-.3-.3c-.3-1.6-1.3-2.2-3.6-2.2-2.7,0-3,.9-3,1.6,0,.9.4,1.1,4,1.6s5.3,1.1,5.3,3.6C96.9,116.7,94.7,118.3,90.9,118.3Z"/><path class="cls-3" d="M50.9,74.9a1.56,1.56,0,0,0-.7-1.3L37.8,66.4c-.1-.1-.4-.1-.7-.1H37c-.3,0-.4.1-.7.1L23.9,73.6a1.56,1.56,0,0,0-.7,1.3V94c0,.3.1.6.4.6a.82.82,0,0,0,.7,0l7.4-4.2a1.56,1.56,0,0,0,.7-1.3V80.2a1.56,1.56,0,0,1,.7-1.3L36.3,77a1.7,1.7,0,0,1,.7-.1c.3,0,.6,0,.7.1l3.2,1.9a1.56,1.56,0,0,1,.7,1.3v8.9a1.56,1.56,0,0,0,.7,1.3l7.4,4.2a.82.82,0,0,0,.7,0,.62.62,0,0,0,.4-.6l.1-19.1Z"/><path class="cls-3" d="M110.9,48.6a.82.82,0,0,0-.7,0,.55.55,0,0,0-.4.6v19a.54.54,0,0,1-.3.4q-.15.15-.6,0l-3.2-1.7a1.2,1.2,0,0,0-1.4,0L91.8,74a1.56,1.56,0,0,0-.7,1.3V89.5a1.56,1.56,0,0,0,.7,1.3L104.2,98a1.2,1.2,0,0,0,1.4,0L118,90.8a1.56,1.56,0,0,0,.7-1.3V53.9a1.56,1.56,0,0,0-.7-1.3l-7.1-4Zm-1.2,36.2c0,.1,0,.3-.1.3l-4.2,2.4H105l-4.3-2.4c-.1,0-.1-.1-.1-.3V79.9c0-.1,0-.3.1-.3l4.2-2.4h.4l4.2,2.4c.1,0,.1.1.1.3v4.9Z"/><path class="cls-3" d="M152.25,79.8a1.44,1.44,0,0,0,.8-1.3V75a1.56,1.56,0,0,0-.7-1.3L140,66.5a1.2,1.2,0,0,0-1.4,0l-12.4,7.2a1.56,1.56,0,0,0-.7,1.3V89.2a1.56,1.56,0,0,0,.7,1.3l12.4,7a1.2,1.2,0,0,0,1.4,0l7.5-4.2a.62.62,0,0,0,.4-.6c0-.2-.1-.6-.4-.6l-12.6-7.2a.62.62,0,0,1-.4-.6V80.1c0-.3.1-.6.4-.6l3.9-2.2a.82.82,0,0,1,.7,0l3.9,2.2a.62.62,0,0,1,.4.6v3.4c0,.3.1.6.4.6a.82.82,0,0,0,.7,0l7.4-4.3Z"/><path class="cls-3" d="M139,79.2h.3l2.3,1.4c.1,0,.1.1.1.3v2.7c0,.1,0,.1-.1.3l-2.3,1.4H139l-2.3-1.4c-.1,0-.1-.1-.1-.3V80.9c0-.1,0-.1.1-.3l2.3-1.4Z"/><path id="path-2" class="cls-2" d="M71.9,66.7a1.2,1.2,0,0,0-1.4,0l-12.4,7a1.56,1.56,0,0,0-.7,1.3V89.2a1.56,1.56,0,0,0,.7,1.3l12.4,7a1.2,1.2,0,0,0,1.4,0l12.4-7a1.56,1.56,0,0,0,.7-1.3V75a1.56,1.56,0,0,0-.7-1.3l-12.4-7Z"/></svg>
