<svg height="35" id="Layer_1" data-name="Layer 1" xmlns="http://www.w3.org/2000/svg" viewBox="0 0 297.81 99.02"><defs><style>.cls-1{fill:#e74c3c;}.cls-2{fill:#2c3e50;}</style></defs><title>partscargo</title><polygon id="_Path_" data-name=" Path " class="cls-1" points="101.08 98.87 101.1 98.89 92.7 98.89 115.14 70.17 123.48 70.17 101.08 98.87"/><polygon id="_Path_2" data-name=" Path 2" class="cls-1" points="58.3 70.17 36.9 98.89 0 98.89 0 70.17 58.3 70.17"/><polygon id="_Path_3" data-name=" Path 3" class="cls-1" points="80.25 70.17 57.42 98.89 39.12 98.89 60.51 70.17 80.25 70.17"/><polygon id="_Path_4" data-name=" Path 4" class="cls-1" points="98.78 70.17 76.29 98.89 59.68 98.89 82.52 70.17 98.78 70.17"/><polygon id="_Path_5" data-name=" Path 5" class="cls-1" points="90.49 98.83 90.56 98.89 78.55 98.89 101.03 70.17 112.89 70.17 90.49 98.83"/><polygon id="_Path_6" data-name=" Path 6" class="cls-1" points="132.14 70.17 110.14 98.89 104.06 98.89 126.48 70.17 132.14 70.17"/><polygon id="_Path_7" data-name=" Path 7" class="cls-1" points="140.04 70.17 118.03 98.89 114.6 98.89 136.61 70.17 140.04 70.17"/><path class="cls-2" d="M63.78,31.85,68.17,11c.13-.81.24-1.54.33-2.2a13.53,13.53,0,0,0,.14-1.91c0-2.37-.69-4.11-2-5.23S62.94,0,59.77,0H15.43L12.82,12.33h33.7a4.15,4.15,0,0,1,1.91.33A1.37,1.37,0,0,1,49,14a8.11,8.11,0,0,1-.19,1.31L46.14,27.74A6.52,6.52,0,0,1,45,30.64a3.3,3.3,0,0,1-2.47.74H27.74L30.82,17H11.88L2.08,63.22H21L25.3,42.87H50.71c4,0,7-.91,9-2.71S63,35.58,63.78,31.85Z" transform="translate(-1.1)"/><path class="cls-2" d="M105.25,0H86.67L53.8,63.22H72.28l4.85-9.8h18l.66,9.8h19L110,0ZM82.18,43,93.28,21,94.71,43Z" transform="translate(-1.1)"/><path class="cls-2" d="M183.49,1.73Q181.35,0,176.48,0h-44.9L129,12.33h33.51a4.91,4.91,0,0,1,2.24.38,1.55,1.55,0,0,1,.65,1.49,4.63,4.63,0,0,1,0,.65c0,.25-.08.53-.14.84L163,26a5.49,5.49,0,0,1-1.17,2.61,4.14,4.14,0,0,1-2.74.65H144.36L147,17H128l-9.8,46.23h18.94l5-23.53h15.7c1.74,0,2.62.5,2.62,1.49a6,6,0,0,1-.05.61c0,.22-.08.48-.14.8L156,63.22H174.9l4.57-21.94a3.32,3.32,0,0,0,.19-1.08v-1a4.38,4.38,0,0,0-2-4.16,11.57,11.57,0,0,0-5.05-1.36,12.32,12.32,0,0,0,6-2.38c1.8-1.34,3.05-3.63,3.73-6.87l2.9-13.72c.13-.69.24-1.34.32-2A11.76,11.76,0,0,0,185.63,7,6.36,6.36,0,0,0,183.49,1.73Z" transform="translate(-1.1)"/><polygon class="cls-2" points="236.27 12.43 238.88 0.01 234.13 0.01 193.97 0.01 189.22 0.01 186.61 12.43 191.35 12.43 201.92 12.43 191.18 63.22 195.93 63.22 205.38 63.22 210.12 63.22 220.86 12.43 231.52 12.43 236.27 12.43"/><path class="cls-2" d="M257.9,23.35,259.68,15a4.84,4.84,0,0,1,1-2.34,3,3,0,0,1,2.15-.65h33.51L298.9,0H254.84q-6.17,0-9.06,2.71T241.67,11l-3.46,16.34a16.39,16.39,0,0,0-.28,2.71,6.11,6.11,0,0,0,1.73,4.62c1.15,1.09,3,1.63,5.56,1.63h24.94q2.43,0,2.43,1.68a5.07,5.07,0,0,1-.1,1l-1.86,8.77a4.31,4.31,0,0,1-1.17,2.43,3.89,3.89,0,0,1-2.48.65h-33.7L230.66,63.2h44.81q6.07,0,9-2.7t4.1-8.31l3.65-17.28a13.45,13.45,0,0,0,.28-2.61,6.25,6.25,0,0,0-1.73-4.68c-1.15-1.12-3-1.68-5.65-1.68H259.77c-1.37,0-2-.47-2-1.4a3.43,3.43,0,0,1,0-.56C257.79,23.82,257.84,23.6,257.9,23.35Z" transform="translate(-1.1)"/><path class="cls-2" d="M146.66,99a4.92,4.92,0,0,1-3.12-.78,3,3,0,0,1-.94-2.39c0-.29,0-.58.05-.88a6.87,6.87,0,0,1,.17-1l4-18.86a7.06,7.06,0,0,1,1.9-3.81A5.91,5.91,0,0,1,152.79,70h16.3l-1.2,5.78h-13.1a2.12,2.12,0,0,0-1.39.32,2.54,2.54,0,0,0-.59,1.3l-3,14.12c0,.14-.05.26-.07.36s0,.22,0,.33a.78.78,0,0,0,.3.68,2,2,0,0,0,1.11.21h13.18L163,99Z" transform="translate(-1.1)"/><path class="cls-2" d="M184.6,99l-.3-4.49H173.86L171.64,99h-6.29l15.06-29h8.51l2.23,29Zm-1.41-23.14-7,13.86h7.91Z" transform="translate(-1.1)"/><path class="cls-2" d="M211.5,99l2-9.45.07-.37a2.46,2.46,0,0,0,0-.28c0-.45-.4-.68-1.2-.68H203L200.73,99h-6.51l4.5-21.17h6.5l-1.2,5.6h8.9a1.94,1.94,0,0,0,1.26-.3,2.42,2.42,0,0,0,.53-1.2l1-4.7a3.77,3.77,0,0,0,.06-.39,1.51,1.51,0,0,0,0-.3.72.72,0,0,0-.3-.69,2.36,2.36,0,0,0-1-.17H199.15l1.2-5.65h18.39a5.19,5.19,0,0,1,3.21.79,2.89,2.89,0,0,1,1,2.42,5.52,5.52,0,0,1-.06.81q-.06.44-.15.9l-1.32,6.3a5.07,5.07,0,0,1-1.71,3.14A5.58,5.58,0,0,1,217,85.48a5.34,5.34,0,0,1,2.31.62A2,2,0,0,1,220.2,88v.45a1.41,1.41,0,0,1-.09.49L218,99Z" transform="translate(-1.1)"/><path class="cls-1" d="M227.33,99a5,5,0,0,1-3.14-.78,2.85,2.85,0,0,1-1-2.35,9,9,0,0,1,.26-1.93l4-18.86a7.17,7.17,0,0,1,1.88-3.81A5.85,5.85,0,0,1,233.45,70h17.88l-1.2,5.77H235.07a1.77,1.77,0,0,0-1.16.3,2.69,2.69,0,0,0-.54,1.29l-3.12,14.76a3.31,3.31,0,0,0-.08.55.63.63,0,0,0,.26.59,2,2,0,0,0,.89.15h9.29L242,86.85h-5.73l1-4.66h11.81L245.52,99Z" transform="translate(-1.1)"/><path class="cls-1" d="M254.92,99a5,5,0,0,1-3.14-.78,2.85,2.85,0,0,1-1-2.35,9,9,0,0,1,.26-1.93l4-18.86a7.17,7.17,0,0,1,1.88-3.81A5.85,5.85,0,0,1,261,70h14.42a4.89,4.89,0,0,1,3.11.78,2.92,2.92,0,0,1,.94,2.39,6.8,6.8,0,0,1-.06.9c0,.32-.09.64-.15,1l-4,18.87a7.06,7.06,0,0,1-1.9,3.81,5.87,5.87,0,0,1-4.1,1.24Zm17.41-21.65a3.1,3.1,0,0,0,.06-.39,1.51,1.51,0,0,0,0-.3c0-.65-.49-1-1.49-1h-8.09a1.73,1.73,0,0,0-1.22.34,2.71,2.71,0,0,0-.58,1.33L258,91.77a5.43,5.43,0,0,0-.09.56c0,.6.42.9,1.25.9h8.08a2.38,2.38,0,0,0,1.45-.35,1.91,1.91,0,0,0,.6-1.11Z" transform="translate(-1.1)"/></svg>
