<svg width="188" height="53" id="Layer_1" data-name="Layer 1" xmlns="http://www.w3.org/2000/svg" viewBox="0 0 186.97 52.54">
  <defs>
    <style>
      .cls-1 {
        fill: #ff6384;
      }

      .cls-2 {
        fill: #4267b2;
      }
    </style>
  </defs>
  <title>partzroot_svg_file</title>
  <path class="cls-1" d="M93.62,23.73l-2.89,3A7,7,0,0,0,85.24,30H78.31l.89-6.32Z" transform="translate(-0.93)"/>
  <path class="cls-2" d="M110.25,8.17,96.84,29.62a7,7,0,0,0-3.47-2.55Q93,27,92.7,26.88l-.34-.07h0Z" transform="translate(-0.93)"/>
  <path class="cls-1" d="M99.51,45.69l-1,6.85H67.69L84.37,35.15A7,7,0,0,0,90,40.56l-3.21,5.13Z" transform="translate(-0.93)"/>
  <g>
    <path class="cls-1" d="M59.21,20l.87.38a29,29,0,0,0-1.81,4l-.47-.15A31.62,31.62,0,0,1,59.21,20Z" transform="translate(-0.93)"/>
    <path class="cls-1" d="M63.69,12.35l1.45,1.32a29,29,0,0,0-4.6,5.93l-1-.42A32.09,32.09,0,0,1,63.69,12.35Z" transform="translate(-0.93)"/>
    <path class="cls-1" d="M72,4.9l1.39,3A29.16,29.16,0,0,0,65.81,13l-1.54-1.4A32.34,32.34,0,0,1,72,4.9Z" transform="translate(-0.93)"/>
    <path class="cls-1" d="M72.79,4.41A32,32,0,0,1,85.88.16v5h-.15A29.11,29.11,0,0,0,74.22,7.53Z" transform="translate(-0.93)"/>
    <path class="cls-1" d="M104,11.55A29.07,29.07,0,0,0,86.82,5.19V.08C87.56,0,88.31,0,89.07,0a32.08,32.08,0,0,1,19.6,6.64Z" transform="translate(-0.93)"/>
  </g>
  <path class="cls-1" d="M96.77,33.69a5.58,5.58,0,0,1-5.58,5.58h-.37a5.58,5.58,0,0,1-5.2-5.4c0-.06,0-.11,0-.17a5.58,5.58,0,0,1,5.52-5.58h.07a5.58,5.58,0,0,1,5.58,5.58Z" transform="translate(-0.93)"/>
  <g>
    <g>
      <path class="cls-2" d="M119.48,37.09a6.25,6.25,0,0,0,1.53-4.3,6.08,6.08,0,0,0-.8-3.2,5.31,5.31,0,0,0-2.38-2.07,7.33,7.33,0,0,0-2.1-.6,28,28,0,0,0-3.7-.18h-5.51l-3.27,20.69h5.5l1.25-7.9,4,7.9h6.31l-5-8.17A6.91,6.91,0,0,0,119.48,37.09Zm-4.71-1.65a3.75,3.75,0,0,1-2.51.75h-1.74l.86-5.44h.82a4.5,4.5,0,0,1,2.63.6,2.23,2.23,0,0,1,.82,1.93A2.68,2.68,0,0,1,114.77,35.44Z" transform="translate(-0.93)"/>
      <path class="cls-2" d="M142.66,29a10.59,10.59,0,0,0-7.54-2.69,12.75,12.75,0,0,0-5.17,1,11,11,0,0,0-4,3,11.35,11.35,0,0,0-2.13,3.65,12.9,12.9,0,0,0-.71,4.33,10,10,0,0,0,.83,4.06,9,9,0,0,0,2.32,3.21,9.54,9.54,0,0,0,3.23,1.82,12.72,12.72,0,0,0,4,.61,12.55,12.55,0,0,0,5.15-1,11.27,11.27,0,0,0,4-3,11.61,11.61,0,0,0,2.13-3.65,12.8,12.8,0,0,0,.72-4.34A9.11,9.11,0,0,0,142.66,29ZM138,41a5.53,5.53,0,0,1-4.23,1.89,4.79,4.79,0,0,1-3.64-1.43,5.29,5.29,0,0,1-1.36-3.82,6.36,6.36,0,0,1,1.71-4.52,5.58,5.58,0,0,1,4.24-1.82,4.86,4.86,0,0,1,3.61,1.43,5,5,0,0,1,1.41,3.67A6.56,6.56,0,0,1,138,41Z" transform="translate(-0.93)"/>
      <path class="cls-2" d="M167.58,29A10.6,10.6,0,0,0,160,26.27a12.78,12.78,0,0,0-5.17,1,11,11,0,0,0-4,3,11.49,11.49,0,0,0-2.13,3.65,12.9,12.9,0,0,0-.71,4.33,10,10,0,0,0,.84,4.06,8.93,8.93,0,0,0,2.32,3.21,9.49,9.49,0,0,0,3.23,1.82,12.75,12.75,0,0,0,4,.61,12.53,12.53,0,0,0,5.14-1,11.24,11.24,0,0,0,4-3,11.47,11.47,0,0,0,2.13-3.65,12.71,12.71,0,0,0,.73-4.34A9.11,9.11,0,0,0,167.58,29ZM163,41a5.54,5.54,0,0,1-4.23,1.89,4.81,4.81,0,0,1-3.64-1.43,5.31,5.31,0,0,1-1.36-3.82,6.35,6.35,0,0,1,1.71-4.52,5.58,5.58,0,0,1,4.24-1.82,4.84,4.84,0,0,1,3.6,1.43,5,5,0,0,1,1.41,3.67A6.56,6.56,0,0,1,163,41Z" transform="translate(-0.93)"/>
      <path class="cls-2" d="M173.29,26.74l-.79,4.8h4.64l-2.52,15.89h5.56l2.51-15.89h4.42l.79-4.8Z" transform="translate(-0.93)"/>
    </g>
    <g>
      <path class="cls-2" d="M17.89,30.52a5.47,5.47,0,0,0-2.37-2.2,6.9,6.9,0,0,0-2.06-.64,24.48,24.48,0,0,0-3.55-.19H4.23L.93,48.17h5.5L7.59,41H9.91a21.66,21.66,0,0,0,3.63-.22,6,6,0,0,0,2-.74,6.23,6.23,0,0,0,2.28-2.55,7.83,7.83,0,0,0,.84-3.59A6.77,6.77,0,0,0,17.89,30.52ZM12.44,36a7.83,7.83,0,0,1-3.63.57H8.28L9,31.87h1a4.74,4.74,0,0,1,2.55.53,1.85,1.85,0,0,1,.81,1.67A2,2,0,0,1,12.44,36Z" transform="translate(-0.93)"/>
      <path class="cls-2" d="M32.53,27.48H25.6L15.24,48.17h6l2-3.9h7.24l.83,3.9h5.61ZM25.32,39.66l2.19-4.73q.14-.31.39-1c.16-.43.34-.92.54-1.49,0,.33,0,.68.08,1.06s.12.8.21,1.28l.95,4.83Z" transform="translate(-0.93)"/>
      <path class="cls-2" d="M54.28,37.83a6.25,6.25,0,0,0,1.53-4.3,6.08,6.08,0,0,0-.8-3.2,5.31,5.31,0,0,0-2.38-2.07,7.33,7.33,0,0,0-2.1-.6,28,28,0,0,0-3.7-.18H41.31L38.05,48.17h5.5l1.25-7.9,4,7.9H55.1l-5-8.17A6.91,6.91,0,0,0,54.28,37.83Zm-4.71-1.65a3.75,3.75,0,0,1-2.51.75H45.32l.86-5.44H47a4.5,4.5,0,0,1,2.63.6A2.23,2.23,0,0,1,50.45,34,2.69,2.69,0,0,1,49.57,36.19Z" transform="translate(-0.93)"/>
      <path class="cls-2" d="M58.76,27.48,58,32.28H62.6L60.09,48.17h5.55l2.52-15.89h4.42l.79-4.8Z" transform="translate(-0.93)"/>
    </g>
  </g>
</svg>
