<svg width="100" height="100" id="Layer_1" data-name="Layer 1" xmlns="http://www.w3.org/2000/svg" viewBox="0 0 176 176"><defs><style>.cls-1{fill:none;}.cls-2{fill:#3771a1;}.cls-3{fill:#ffd242;}</style></defs><title>python-black20181026</title><rect class="cls-1" width="176" height="176"/><path class="cls-2" d="M87.7,45c-21.9,0-20.4,9.6-20.4,9.6v9.8H88.1v3H59S45,65.8,45,87.9s12.2,21.4,12.2,21.4h7.3V99s-.4-12.2,12-12.2H97.1s11.6.2,11.6-11.3v-19S110.6,45,87.7,45ZM76.2,51.6a3.7,3.7,0,1,1-3.7,3.7,3.63,3.63,0,0,1,3.7-3.7Z"/><path class="cls-3" d="M88.3,131c21.8,0,20.4-9.6,20.4-9.6v-9.8H87.9v-3H117s14,1.6,14-20.5-12.2-21.4-12.2-21.4h-7.3V77s.4,12.2-12,12.2H78.8S67.2,89,67.2,100.5v19c.1,0-1.8,11.5,21.1,11.5Zm11.5-6.6a3.7,3.7,0,1,1,3.7-3.7,3.63,3.63,0,0,1-3.7,3.7Z"/></svg>
