<svg width="100" height="100" id="Layer_1" data-name="Layer 1" xmlns="http://www.w3.org/2000/svg" viewBox="0 0 176 176"><defs><style>.cls-1{fill:none;}.cls-2{fill:#e82542;}</style></defs><title>ruby-black20181026</title><rect class="cls-1" width="176" height="176"/><path class="cls-2" d="M92.2,48.1v.5h0c2.6,0,4.6.7,5.9,2.2,4.6,5,1.4,18.2-13.6,33.5A71.39,71.39,0,0,1,69.7,96c-4.5,2.4-8.8,3.7-12.2,3.7a8.3,8.3,0,0,1-6.4-2.4,8.79,8.79,0,0,1-1.9-5.8A23,23,0,0,1,51,83.3C53.5,77,58.4,70,64.7,63.8A69.93,69.93,0,0,1,79.4,52.6c4.9-2.6,9.3-4,12.9-4l-.1-.5"/><path class="cls-2" d="M46.7,95.1l2.9,7.6L46.2,109l.5-13.9"/><path class="cls-2" d="M48.8,109l-1.1,13.4a15.52,15.52,0,0,1-1.3-4.4,26.54,26.54,0,0,1-.4-3.7l2.8-5.3"/><path class="cls-2" d="M51.4,107.7l9.1,22h-.9a15.31,15.31,0,0,1-5.5-1c-1.9-.7-3.6-2.7-4.2-3.2l1.5-17.8"/><path class="cls-2" d="M70.9,99.9l-8.5,27.9L52.3,103.9l18.6-4"/><path class="cls-2" d="M74.7,99.9l28.9,9.4c-.9.9-3.2,3.1-7,6.3a61.53,61.53,0,0,1-10.3,7L74.7,99.9"/><path class="cls-2" d="M73.1,101.2l11.5,22.2a62.15,62.15,0,0,1-11.7,4.9c-4.4,1.1-7.2,1.6-8.4,1.8l8.6-28.9"/><path class="cls-2" d="M96.4,77.5l7.4,29.3L75,97.5l21.4-20"/><path class="cls-2" d="M99.8,78.4l19.3,11.9a134.59,134.59,0,0,1-12.3,16.1l-7-28"/><path class="cls-2" d="M127.7,73.9a56.46,56.46,0,0,1-6.9,14.2L100.7,75.8l27-1.9"/><path class="cls-2" d="M104.8,54.4l20.5,16.9L99,73.2l5.8-18.8"/><path class="cls-2" d="M108.2,53.9,129.5,57c.3,1.2,1.4,6.3-.9,13.8L108.2,53.9"/><path class="cls-2" d="M117.6,46.3a17.68,17.68,0,0,1,4.9,1.5,11.67,11.67,0,0,1,6.4,6.9l-21.3-2.9,10-5.5"/><path class="cls-2" d="M97.3,46l15.2.1L104,50.8,97.3,46"/><path class="cls-2" d="M128.8,78.5,126,115.3l-3.6-25a81,81,0,0,0,6.4-11.8"/><path class="cls-2" d="M120.3,93.3l4.4,30.4L108.1,109a171,171,0,0,0,12.2-15.7"/><path class="cls-2" d="M105.9,110.4l16.9,15-32.5-2.6c2.5-1.4,7.9-5,15.6-12.4"/><path class="cls-2" d="M86.5,125.1l23,1.9-31.3,2.1a48.68,48.68,0,0,0,8.3-4"/></svg>
