<svg id="Layer_1" data-name="Layer 1" xmlns="http://www.w3.org/2000/svg" viewBox="0 0 143.32 33.27"><defs><style>.cls-1{fill:#282828;}</style></defs><title>Suzuki_logo</title><g id="_Group_" data-name=" Group "><path id="_Path_" data-name=" Path " class="cls-1" d="M33.28,23.13s-3.11.89-9.12,4.6a40,40,0,0,0-7.5,5.54L0,21.77s7-5.15,12.86-1.21L20.66,26l1-.63L0,10.15s3.11-.9,9.12-4.6A40.53,40.53,0,0,0,16.66,0L33.3,11.5s-7,5.15-12.85,1.21L12.6,7.32,11.6,8Z"/><g id="_Group_2" data-name=" Group 2"><polygon id="_Path_2" data-name=" Path 2" class="cls-1" points="97.26 8.04 79.97 8.04 79.97 12.08 88.32 12.08 79.7 20.62 79.7 24.02 97.23 24.02 97.23 19.95 88.49 19.95 97.26 11.44 97.26 8.04 97.26 8.04"/><path id="_Path_3" data-name=" Path 3" class="cls-1" d="M69.79,24.06c6.92,0,8.7-1.83,8.7-5.85V8H73v9.51c0,1.6-1.33,2.58-3.21,2.58s-3.19-1-3.19-2.62V8H61.1V18.21c0,4,1.79,5.85,8.68,5.85Z"/><path id="_Path_4" data-name=" Path 4" class="cls-1" d="M107.3,24.06c6.92,0,8.68-1.84,8.68-5.88V8H110.5v9.58c0,1.61-1.34,2.59-3.2,2.59s-3.21-1-3.21-2.63V8H98.66V18.18c0,4,1.76,5.88,8.68,5.88Z"/><polygon id="_Path_5" data-name=" Path 5" class="cls-1" points="143.32 8.04 137.62 8.04 137.62 23.95 143.32 23.95 143.32 8.04 143.32 8.04"/><polygon id="_Path_6" data-name=" Path 6" class="cls-1" points="136.74 7.97 129.23 7.97 123.15 13.47 123.15 7.97 117.44 7.97 117.44 23.95 123.15 23.95 123.15 18.29 128.79 23.95 136.47 23.95 128.12 15.76 136.74 7.97 136.74 7.97"/><path id="_Path_7" data-name=" Path 7" class="cls-1" d="M47.66,12.63c0-1.2,1.74-1.23,2.33-1.23a3.3,3.3,0,0,1,2.78,1.7h6.46C59.23,10.25,56.53,8,50,8,42.73,8,41.5,11.17,41.5,13c0,3.41,2.61,4.42,8.29,5,.49.08,3.46-.09,3.46,1.36,0,1.06-1.67,1.14-2.28,1.14a2.88,2.88,0,0,1-2.68-1.8H41.12c0,3.35,2.26,5.29,9.8,5.29,6.94,0,8.8-2.86,8.8-5s-1.45-4.27-7.38-5c-2.46-.32-4.72-.46-4.72-1.32Z"/></g></g></svg>